# xmcd
#
# Track frame offsets:
#	150
#	18625
#	38075
#	51625
#	63325
#	75250
#	88420
#	98350
#	113050
#	126150
#	141400
#
# Disc length: 2016 seconds
#
# Revision: 0
# Processed by: cddbd v1.5.2PL0 Copyright (c) Steve Scherf et al.
# Submitted via: EZCDAudioConverter 2.3.5.1
#
DISCID=9107de0b
DTITLE=Artisti Vari - The Best - Borderline
DYEAR=1993
DGENRE=Blues
TTITLE0=Kris Kristofferson - Me and Bobby McGee
TTITLE1=Kris Kristofferson - The silver-tongued devil and I
TTITLE2=Johnny Cash - If I were a carpenter
TTITLE3=Johnny Cash - Ring of fire
TTITLE4=Willie Nelson - Funny how time slips away
TTITLE5=Willie Nelson - My own peculiar way
TTITLE6=Willie Nelson - Hello walls
TTITLE7=Merle Haggard - Yesterday's wine
TTITLE8=Johnny Cash - I walk the line
TTITLE9=Johnny Cash - Wanted man
TTITLE10=George Jones and Willie Nelson - I gitta get drunk
EXTD=
EXTT0=
EXTT1=
EXTT2=
EXTT3=
EXTT4=
EXTT5=
EXTT6=
EXTT7=
EXTT8=
EXTT9=
EXTT10=
PLAYORDER=
